<?xml version="1.0" encoding="UTF-8" standalone="no"?> <!-- Created with Inkscape (http://www.inkscape.org/) --> <svg xmlns:dc="http://purl.org/dc/elements/1.1/" xmlns:cc="http://creativecommons.org/ns#" xmlns:rdf="http://www.w3.org/1999/02/22-rdf-syntax-ns#" xmlns:svg="http://www.w3.org/2000/svg" xmlns="http://www.w3.org/2000/svg" xmlns:xlink="http://www.w3.org/1999/xlink" xmlns:sodipodi="http://sodipodi.sourceforge.net/DTD/sodipodi-0.dtd" xmlns:inkscape="http://www.inkscape.org/namespaces/inkscape" width="177.51982mm" height="82.389572mm" viewBox="0 0 177.51982 82.389572" id="svg8" inkscape:version="0.92.2 (5c3e80d, 2017-08-06)" sodipodi:docname="wisecloudreverseWlogo.svg"> <defs id="defs2"> <linearGradient id="s" x1="611.29333" x2="609.60132" y1="226.07272" y2="92.796539" gradientTransform="matrix(0.90484233,0,0,1.1051649,-0.15300515,-1.0790573)" gradientUnits="userSpaceOnUse"> <stop offset="0" stop-color="#589632" id="stop17"></stop> <stop offset="1" stop-color="#93B023" id="stop19"></stop> </linearGradient> <linearGradient inkscape:collect="always" xlink:href="#s" id="linearGradient10063" gradientUnits="userSpaceOnUse" gradientTransform="matrix(1.3226269,0,0,1.3226269,-1962.1959,-954.41065)" x1="391.19193" y1="-234.76804" x2="391.19193" y2="-382.76804"></linearGradient> <linearGradient id="i" x1="0.50099999" x2="0.484" y1="1.0039999" y2="-0.017999999"> <stop offset="0" stop-color="#589632" id="stop12"></stop> <stop offset="1" stop-color="#93B023" id="stop14"></stop> </linearGradient> <linearGradient id="g" x1="357.48438" x2="357.48438" y1="238.21921" y2="93.419701" gradientTransform="scale(0.96496736,1.0363045)" gradientUnits="userSpaceOnUse"> <stop offset="0" stop-color="#589632" id="stop7"></stop> <stop offset="1" stop-color="#93B023" id="stop9"></stop> </linearGradient> <linearGradient id="q" x1="180.51282" x2="180.51282" y1="249.38397" gradientTransform="scale(1.029642,0.97121137)" y2="101.47637" gradientUnits="userSpaceOnUse" spreadMethod="pad"> <stop offset="0" stop-color="#589632" id="stop2"></stop> <stop offset="1" stop-color="#93B023" id="stop4"></stop> </linearGradient> </defs> <metadata id="metadata5"></metadata> <g inkscape:label="Layer 1" inkscape:groupmode="layer" id="layer1" transform="translate(-16.581177,-14.018991)"> <g id="g956" transform="matrix(4.7240994,0,0,4.7240994,-245.58565,-1848.1414)"> <g id="g1106"> <path style="fill:#808080;fill-opacity:1;stroke:none;stroke-width:0.1;stroke-miterlimit:4;stroke-dasharray:none;stroke-dashoffset:0" d="m 66.673965,395.08258 -4.229714,11.61944 1.339453,3.67988 c 0.04441,0.12202 0.04126,0.24799 0.0021,0.35914 L 68.02017,399.1061 66.6771,395.4159 c -0.04066,-0.11173 -0.03713,-0.22709 -0.0016,-0.33073 -5.21e-4,-8.7e-4 -0.001,-0.002 -0.0015,-0.003 z" id="rect888" inkscape:connector-curvature="0"></path> <rect rx="0.5" ry="0.5" y="390.06039" x="-83.062698" height="17.897236" width="2.6412232" id="rect939" style="fill:#325abe;fill-opacity:1;stroke:none;stroke-width:0.1;stroke-miterlimit:4;stroke-dasharray:none;stroke-dashoffset:0" transform="rotate(-20)"></rect> <path style="fill:#808080;fill-opacity:1;stroke:none;stroke-width:0.1;stroke-miterlimit:4;stroke-dasharray:none;stroke-dashoffset:0" d="m 78.473947,394.18392 c -0.194639,0.01 -0.373362,0.13346 -0.444416,0.32867 l -4.435906,12.18737 1.34307,3.69072 c 0.04337,0.11917 0.0373,0.24286 -0.0052,0.35193 h 0.001 l 5.578988,-15.32671 c 0.09474,-0.2603 -0.03891,-0.54605 -0.299206,-0.64079 l -1.542026,-0.56121 c -0.06507,-0.0237 -0.13149,-0.0332 -0.196371,-0.03 z" id="rect949" inkscape:connector-curvature="0"></path> <rect transform="rotate(-20)" style="fill:#325abe;fill-opacity:1;stroke:none;stroke-width:0.1;stroke-miterlimit:4;stroke-dasharray:none;stroke-dashoffset:0" id="rect958" width="2.6412232" height="17.897236" x="-72.585136" y="393.87396" ry="0.5" rx="0.5"></rect> </g> <path sodipodi:nodetypes="ccccsccccccccccccc" inkscape:connector-curvature="0" id="circle1083" d="m 85.791145,394.21103 c -1.077643,0.003 -2.099398,0.47982 -2.792077,1.30535 -0.0937,0.113 -0.180498,0.23156 -0.259934,0.35502 -0.894353,0.24072 -1.693593,0.74943 -2.2903,1.45777 -0.393652,0.46953 -0.65001,1.00814 -0.865579,1.60041 -2.987389,8.20778 -2.987415,8.20778 -2.987415,8.20778 0.627417,0.49792 1.705665,0.6849 2.892848,0.59171 0.01736,1.14729 0.531921,2.23052 1.41025,2.96881 1.67391,1.40436 4.169317,1.18594 5.573818,-0.48784 0.118579,-0.14375 0.226851,-0.29572 0.324012,-0.45474 1.719043,0.95091 3.870745,0.55153 5.134054,-0.95292 1.457973,-1.73786 1.231247,-4.32856 -0.506428,-5.78673 -0.07394,-0.0602 -0.14995,-0.11771 -0.227894,-0.17259 0.401661,-0.21219 0.758561,-0.49998 1.051097,-0.84751 1.252588,-1.49275 1.057773,-3.71832 -0.435115,-4.97075 -0.763733,-0.63887 -1.761868,-0.92528 -2.748153,-0.78857 -0.22229,-0.44892 -0.534506,-0.84733 -0.917255,-1.17049 -0.66,-0.55372 -1.494417,-0.85643 -2.355929,-0.85471 z" style="fill:#325abe;fill-opacity:1;stroke:none;stroke-width:0.0761976;stroke-miterlimit:4;stroke-dasharray:none;stroke-dashoffset:0"></path> </g> </g> </svg> 